<svg xmlns="http://www.w3.org/2000/svg" viewBox="0 0 404 260" width="404" height="260"><rect width="404" height="260" fill="#0f172a" rx="10"/><polyline points="22,22 22,46 22,70 46,70 70,70 70,94 94,94 94,70 118,70 118,46 118,22 142,22 166,22 166,46 142,46 142,70 166,70 190,70 214,70 214,94 190,94 166,94 142,94 118,94 118,118 142,118 142,142 142,166 166,166 166,142 166,118 190,118 214,118 238,118 238,142 214,142 214,166 214,190 214,214 214,238 238,238 238,214 262,214 262,190 262,166 286,166 286,190 286,214 310,214 334,214 358,214 358,190 358,166 358,142 358,118 358,94 334,94 334,70 358,70 382,70 382,94 382,118 382,142 382,166 382,190 382,214 382,238" fill="none" stroke="#38bdf8" stroke-width="3" stroke-linejoin="round" opacity="0.9"/><path d="M10 10h24M10 10v24M34 10h24M34 10v24M58 10h24M58 10v24M82 10h24M106 10h24M130 10h24M154 10h24M178 10h24M178 10v24M202 10h24M226 10h24M250 10h24M274 10h24M298 10h24M322 10h24M346 10h24M370 10h24M10 34v24M34 34v24M82 34h24M106 34v24M130 34h24M130 34v24M178 34v24M202 34h24M226 34h24M250 34h24M274 34h24M298 34h24M322 34h24M346 34v24M370 34h24M10 58v24M34 58h24M58 58h24M82 58h24M82 58v24M130 58v24M154 58h24M178 58h24M202 58h24M226 58h24M226 58v24M250 58h24M274 58h24M274 58v24M322 58h24M322 58v24M346 58h24M10 82h24M10 82v24M34 82h24M58 82v24M106 82h24M106 82v24M130 82h24M154 82h24M178 82h24M226 82v24M250 82h24M298 82h24M298 82v24M322 82v24M346 82h24M370 82v24M10 106h24M10 106v24M58 106h24M82 106h24M106 106v24M130 106h24M154 106h24M154 106v24M178 106h24M202 106h24M226 106h24M250 106v24M274 106h24M298 106v24M322 106h24M346 106v24M370 106v24M10 130v24M34 130h24M58 130h24M58 130v24M82 130v24M106 130h24M130 130v24M154 130v24M178 130h24M178 130v24M202 130h24M202 130v24M250 130h24M250 130v24M298 130h24M322 130v24M346 130v24M370 130v24M10 154v24M34 154v24M58 154v24M82 154h24M130 154v24M178 154v24M202 154v24M226 154h24M226 154v24M250 154h24M274 154h24M298 154v24M322 154v24M346 154v24M370 154v24M10 178v24M34 178v24M58 178h24M82 178h24M106 178h24M130 178h24M154 178h24M154 178v24M202 178v24M226 178v24M250 178v24M274 178v24M298 178v24M346 178v24M370 178v24M10 202v24M34 202h24M34 202v24M58 202h24M82 202h24M82 202v24M130 202v24M154 202v24M178 202v24M202 202v24M226 202h24M226 202v24M274 202v24M298 202h24M322 202h24M370 202v24M10 226v24M34 226h24M82 226v24M106 226h24M130 226h24M178 226v24M250 226h24M250 226v24M274 226h24M298 226h24M322 226h24M346 226h24M10 250h384M394 10v240" stroke="#e2e8f0" stroke-width="2" fill="none" stroke-linecap="square"/><circle cx="22" cy="22" r="5" fill="#22c55e"/><circle cx="382" cy="238" r="5" fill="#f59e0b"/></svg>