<svg xmlns="http://www.w3.org/2000/svg" viewBox="0 0 500 212" width="500" height="212"><rect width="500" height="212" fill="#0f172a" rx="10"/><polyline points="22,22 22,46 22,70 46,70 46,94 70,94 94,94 94,70 70,70 70,46 46,46 46,22 70,22 94,22 118,22 118,46 118,70 118,94 142,94 166,94 166,118 166,142 190,142 190,118 190,94 214,94 214,118 214,142 214,166 214,190 238,190 238,166 238,142 262,142 262,166 286,166 286,142 310,142 334,142 334,118 310,118 286,118 286,94 262,94 262,70 262,46 286,46 310,46 310,70 334,70 358,70 382,70 406,70 406,94 406,118 382,118 382,142 406,142 406,166 382,166 382,190 406,190 430,190 454,190 478,190" fill="none" stroke="#38bdf8" stroke-width="3" stroke-linejoin="round" opacity="0.9"/><path d="M10 10h24M10 10v24M34 10h24M34 10v24M58 10h24M82 10h24M106 10h24M130 10h24M130 10v24M154 10h24M178 10h24M178 10v24M202 10h24M226 10h24M226 10v24M250 10h24M274 10h24M298 10h24M322 10h24M346 10h24M370 10h24M394 10h24M418 10h24M418 10v24M442 10h24M466 10h24M10 34v24M34 34v24M58 34h24M82 34h24M82 34v24M130 34v24M154 34v24M178 34v24M202 34v24M226 34v24M250 34h24M250 34v24M274 34h24M298 34h24M322 34v24M346 34h24M370 34v24M394 34h24M442 34v24M466 34h24M10 58v24M34 58h24M58 58v24M82 58h24M106 58v24M130 58v24M154 58h24M202 58v24M250 58v24M274 58h24M274 58v24M322 58h24M346 58h24M370 58h24M394 58h24M418 58v24M442 58h24M442 58v24M10 82h24M10 82v24M34 82v24M58 82h24M106 82v24M130 82h24M154 82h24M178 82h24M178 82v24M202 82h24M226 82v24M250 82v24M274 82h24M298 82h24M298 82v24M322 82h24M346 82h24M370 82h24M394 82v24M418 82v24M442 82v24M466 82v24M10 106v24M34 106h24M58 106h24M82 106h24M106 106h24M130 106h24M130 106v24M154 106v24M178 106v24M202 106v24M226 106v24M250 106h24M274 106v24M298 106h24M322 106h24M346 106v24M370 106h24M370 106v24M418 106h24M418 106v24M466 106v24M10 130v24M34 130h24M34 130v24M58 130v24M82 130h24M106 130v24M154 130v24M202 130v24M226 130h24M226 130v24M250 130h24M274 130h24M274 130v24M298 130h24M346 130v24M370 130v24M394 130h24M418 130v24M442 130h24M466 130h24M10 154v24M58 154h24M58 154v24M82 154v24M106 154h24M130 154h24M154 154h24M178 154h24M202 154v24M226 154v24M250 154v24M298 154h24M298 154v24M322 154h24M370 154h24M370 154v24M418 154v24M442 154h24M466 154v24M10 178h24M10 178v24M82 178h24M106 178h24M130 178v24M154 178h24M178 178h24M250 178h24M250 178v24M274 178h24M322 178v24M346 178h24M394 178h24M418 178h24M442 178h24M10 202h480M490 10v192" stroke="#e2e8f0" stroke-width="2" fill="none" stroke-linecap="square"/><circle cx="22" cy="22" r="5" fill="#22c55e"/><circle cx="478" cy="190" r="5" fill="#f59e0b"/></svg>