<svg xmlns="http://www.w3.org/2000/svg" viewBox="0 0 320 320" width="320" height="320"><rect width="320" height="320" fill="#0f172a" rx="14"/><polygon points="190.0,151.0 193.0,160.0 190.0,169.0 187.0,160.0" fill="#f97316" opacity="0.8"/><polygon points="186.0,166.0 189.0,175.0 186.0,184.0 183.0,175.0" fill="#f97316" opacity="0.8"/><polygon points="175.0,177.0 178.0,186.0 175.0,195.0 172.0,186.0" fill="#f97316" opacity="0.8"/><polygon points="160.0,181.0 163.0,190.0 160.0,199.0 157.0,190.0" fill="#f97316" opacity="0.8"/><polygon points="145.0,177.0 148.0,186.0 145.0,195.0 142.0,186.0" fill="#f97316" opacity="0.8"/><polygon points="134.0,166.0 137.0,175.0 134.0,184.0 131.0,175.0" fill="#f97316" opacity="0.8"/><polygon points="130.0,151.0 133.0,160.0 130.0,169.0 127.0,160.0" fill="#f97316" opacity="0.8"/><polygon points="134.0,136.0 137.0,145.0 134.0,154.0 131.0,145.0" fill="#f97316" opacity="0.8"/><polygon points="145.0,125.0 148.0,134.0 145.0,143.0 142.0,134.0" fill="#f97316" opacity="0.8"/><polygon points="160.0,121.0 163.0,130.0 160.0,139.0 157.0,130.0" fill="#f97316" opacity="0.8"/><polygon points="175.0,125.0 178.0,134.0 175.0,143.0 172.0,134.0" fill="#f97316" opacity="0.8"/><polygon points="186.0,136.0 189.0,145.0 186.0,154.0 183.0,145.0" fill="#f97316" opacity="0.8"/><polygon points="211.0,161.3 214.0,170.3 211.0,179.3 208.0,170.3" fill="#ef4444" opacity="0.8"/><polygon points="199.0,185.4 202.0,194.4 199.0,203.4 196.0,194.4" fill="#ef4444" opacity="0.8"/><polygon points="176.5,200.3 179.5,209.3 176.5,218.3 173.5,209.3" fill="#ef4444" opacity="0.8"/><polygon points="149.7,202.0 152.7,211.0 149.7,220.0 146.7,211.0" fill="#ef4444" opacity="0.8"/><polygon points="125.6,190.0 128.6,199.0 125.6,208.0 122.6,199.0" fill="#ef4444" opacity="0.8"/><polygon points="110.7,167.5 113.7,176.5 110.7,185.5 107.7,176.5" fill="#ef4444" opacity="0.8"/><polygon points="109.0,140.7 112.0,149.7 109.0,158.7 106.0,149.7" fill="#ef4444" opacity="0.8"/><polygon points="121.0,116.6 124.0,125.6 121.0,134.6 118.0,125.6" fill="#ef4444" opacity="0.8"/><polygon points="143.5,101.7 146.5,110.7 143.5,119.7 140.5,110.7" fill="#ef4444" opacity="0.8"/><polygon points="170.3,100.0 173.3,109.0 170.3,118.0 167.3,109.0" fill="#ef4444" opacity="0.8"/><polygon points="194.4,112.0 197.4,121.0 194.4,130.0 191.4,121.0" fill="#ef4444" opacity="0.8"/><polygon points="209.3,134.5 212.3,143.5 209.3,152.5 206.3,143.5" fill="#ef4444" opacity="0.8"/><polygon points="228.2,179.8 231.2,188.8 228.2,197.8 225.2,188.8" fill="#fbbf24" opacity="0.8"/><polygon points="204.6,210.0 207.6,219.0 204.6,228.0 201.6,219.0" fill="#fbbf24" opacity="0.8"/><polygon points="169.1,224.4 172.1,233.4 169.1,242.4 166.1,233.4" fill="#fbbf24" opacity="0.8"/><polygon points="131.2,219.2 134.2,228.2 131.2,237.2 128.2,228.2" fill="#fbbf24" opacity="0.8"/><polygon points="101.0,195.6 104.0,204.6 101.0,213.6 98.0,204.6" fill="#fbbf24" opacity="0.8"/><polygon points="86.6,160.1 89.6,169.1 86.6,178.1 83.6,169.1" fill="#fbbf24" opacity="0.8"/><polygon points="91.8,122.2 94.8,131.2 91.8,140.2 88.8,131.2" fill="#fbbf24" opacity="0.8"/><polygon points="115.4,92.0 118.4,101.0 115.4,110.0 112.4,101.0" fill="#fbbf24" opacity="0.8"/><polygon points="150.9,77.6 153.9,86.6 150.9,95.6 147.9,86.6" fill="#fbbf24" opacity="0.8"/><polygon points="188.8,82.8 191.8,91.8 188.8,100.8 185.8,91.8" fill="#fbbf24" opacity="0.8"/><polygon points="219.0,106.4 222.0,115.4 219.0,124.4 216.0,115.4" fill="#fbbf24" opacity="0.8"/><polygon points="233.4,141.9 236.4,150.9 233.4,159.9 230.4,150.9" fill="#fbbf24" opacity="0.8"/><polygon points="239.2,205.2 242.2,214.2 239.2,223.2 236.2,214.2" fill="#f97316" opacity="0.8"/><polygon points="201.5,237.6 204.5,246.6 201.5,255.6 198.5,246.6" fill="#f97316" opacity="0.8"/><polygon points="152.7,246.7 155.7,255.7 152.7,264.7 149.7,255.7" fill="#f97316" opacity="0.8"/><polygon points="105.8,230.2 108.8,239.2 105.8,248.2 102.8,239.2" fill="#f97316" opacity="0.8"/><polygon points="73.4,192.5 76.4,201.5 73.4,210.5 70.4,201.5" fill="#f97316" opacity="0.8"/><polygon points="64.3,143.7 67.3,152.7 64.3,161.7 61.3,152.7" fill="#f97316" opacity="0.8"/><polygon points="80.8,96.8 83.8,105.8 80.8,114.8 77.8,105.8" fill="#f97316" opacity="0.8"/><polygon points="118.5,64.4 121.5,73.4 118.5,82.4 115.5,73.4" fill="#f97316" opacity="0.8"/><polygon points="167.3,55.3 170.3,64.3 167.3,73.3 164.3,64.3" fill="#f97316" opacity="0.8"/><polygon points="214.2,71.8 217.2,80.8 214.2,89.8 211.2,80.8" fill="#f97316" opacity="0.8"/><polygon points="246.6,109.5 249.6,118.5 246.6,127.5 243.6,118.5" fill="#f97316" opacity="0.8"/><polygon points="255.7,158.3 258.7,167.3 255.7,176.3 252.7,167.3" fill="#f97316" opacity="0.8"/><polygon points="242.2,235.6 245.2,244.6 242.2,253.6 239.2,244.6" fill="#ef4444" opacity="0.8"/><polygon points="188.9,265.4 191.9,274.4 188.9,283.4 185.9,274.4" fill="#ef4444" opacity="0.8"/><polygon points="127.8,264.5 130.8,273.5 127.8,282.5 124.8,273.5" fill="#ef4444" opacity="0.8"/><polygon points="75.4,233.2 78.4,242.2 75.4,251.2 72.4,242.2" fill="#ef4444" opacity="0.8"/><polygon points="45.6,179.9 48.6,188.9 45.6,197.9 42.6,188.9" fill="#ef4444" opacity="0.8"/><polygon points="46.5,118.8 49.5,127.8 46.5,136.8 43.5,127.8" fill="#ef4444" opacity="0.8"/><polygon points="77.8,66.4 80.8,75.4 77.8,84.4 74.8,75.4" fill="#ef4444" opacity="0.8"/><polygon points="131.1,36.6 134.1,45.6 131.1,54.6 128.1,45.6" fill="#ef4444" opacity="0.8"/><polygon points="192.2,37.5 195.2,46.5 192.2,55.5 189.2,46.5" fill="#ef4444" opacity="0.8"/><polygon points="244.6,68.8 247.6,77.8 244.6,86.8 241.6,77.8" fill="#ef4444" opacity="0.8"/><polygon points="274.4,122.1 277.4,131.1 274.4,140.1 271.4,131.1" fill="#ef4444" opacity="0.8"/><polygon points="273.5,183.2 276.5,192.2 273.5,201.2 270.5,192.2" fill="#ef4444" opacity="0.8"/></svg>