<svg xmlns="http://www.w3.org/2000/svg" viewBox="0 0 1048 220" width="1048" height="220"><rect width="1048" height="220" fill="#0f172a" rx="10"/><line x1="160" y1="52" x2="208" y2="52" stroke="#334155" stroke-width="1.5"/><line x1="328" y1="52" x2="376" y2="52" stroke="#334155" stroke-width="1.5"/><line x1="160" y1="52" x2="208" y2="112" stroke="#334155" stroke-width="1.5"/><line x1="496" y1="52" x2="544" y2="112" stroke="#334155" stroke-width="1.5"/><line x1="328" y1="52" x2="376" y2="112" stroke="#334155" stroke-width="1.5"/><line x1="328" y1="52" x2="376" y2="172" stroke="#334155" stroke-width="1.5"/><line x1="328" y1="112" x2="376" y2="172" stroke="#334155" stroke-width="1.5"/><line x1="496" y1="172" x2="544" y2="52" stroke="#334155" stroke-width="1.5"/><line x1="496" y1="52" x2="544" y2="52" stroke="#334155" stroke-width="1.5"/><line x1="496" y1="112" x2="712" y2="52" stroke="#334155" stroke-width="1.5"/><line x1="664" y1="52" x2="712" y2="52" stroke="#334155" stroke-width="1.5"/><line x1="664" y1="112" x2="880" y2="52" stroke="#334155" stroke-width="1.5"/><line x1="832" y1="52" x2="880" y2="52" stroke="#334155" stroke-width="1.5"/><line x1="664" y1="52" x2="880" y2="52" stroke="#334155" stroke-width="1.5"/><rect x="40" y="40" width="130" height="26" rx="6" fill="#1e293b" stroke="#475569"/><text x="105" y="58" font-family="sans-serif" font-size="12" fill="#e2e8f0" text-anchor="middle">arithmetic</text><rect x="208" y="40" width="130" height="26" rx="6" fill="#1e293b" stroke="#475569"/><text x="273" y="58" font-family="sans-serif" font-size="12" fill="#e2e8f0" text-anchor="middle">algebra</text><rect x="376" y="40" width="130" height="26" rx="6" fill="#1e293b" stroke="#475569"/><text x="441" y="58" font-family="sans-serif" font-size="12" fill="#e2e8f0" text-anchor="middle">functions</text><rect x="208" y="100" width="130" height="26" rx="6" fill="#1e293b" stroke="#475569"/><text x="273" y="118" font-family="sans-serif" font-size="12" fill="#e2e8f0" text-anchor="middle">geometry</text><rect x="544" y="100" width="130" height="26" rx="6" fill="#1e293b" stroke="#475569"/><text x="609" y="118" font-family="sans-serif" font-size="12" fill="#e2e8f0" text-anchor="middle">linear_algebra</text><rect x="376" y="100" width="130" height="26" rx="6" fill="#1e293b" stroke="#475569"/><text x="441" y="118" font-family="sans-serif" font-size="12" fill="#e2e8f0" text-anchor="middle">statistics</text><rect x="376" y="160" width="130" height="26" rx="6" fill="#1e293b" stroke="#475569"/><text x="441" y="178" font-family="sans-serif" font-size="12" fill="#e2e8f0" text-anchor="middle">trigonometry</text><rect x="544" y="40" width="130" height="26" rx="6" fill="#1e293b" stroke="#475569"/><text x="609" y="58" font-family="sans-serif" font-size="12" fill="#e2e8f0" text-anchor="middle">calculus</text><rect x="712" y="40" width="130" height="26" rx="6" fill="#1e293b" stroke="#475569"/><text x="777" y="58" font-family="sans-serif" font-size="12" fill="#e2e8f0" text-anchor="middle">probability</text><rect x="880" y="40" width="130" height="26" rx="6" fill="#f59e0b" stroke="#475569"/><text x="945" y="58" font-family="sans-serif" font-size="12" fill="#e2e8f0" text-anchor="middle">machine_learning</text></svg>